<svg width="66" height="66" viewBox="0 0 66 66" fill="none" xmlns="http://www.w3.org/2000/svg">
<g filter="url(#filter0_d_4118_15464)">
<circle cx="32" cy="31" r="29.5" fill="#4FA1A1" stroke="white" stroke-width="3"/>
<path d="M44.0305 17.6615C40.3461 15.4818 36.0149 14.617 31.8664 15.1584C29.982 15.4537 28.0203 16.5998 25.9602 17.5139C22.1985 19.2014 18.9219 22.4217 17.4664 26.2467C16.5664 29.024 16.2289 32.5678 16.693 35.542C17.3188 38.5162 19.2524 41.2865 21.3477 43.4381C24.2727 46.2787 28.7586 46.9748 32.6399 46.1381C40.6906 44.4998 45.7039 34.2131 39.6008 27.7303C36.9008 24.6998 31.4656 24.5311 28.4914 27.0482C27.1836 28.349 26.1149 30.9014 26.7266 33.0178C26.9656 33.8686 28.1539 35.6475 29.4688 35.76C30.2844 35.9076 31.3321 35.5701 31.8242 34.9162C31.8805 34.8459 31.8805 34.7896 31.8664 34.8529C31.8383 34.9092 31.8664 35.1271 31.9297 35.2256L31.8031 34.9443C31.8172 35.0006 31.8313 35.0006 31.768 34.9443C31.2266 34.4592 30.6641 34.3186 29.9961 33.3834C29.0539 31.9912 29.5672 30.0646 30.7485 28.9537C33.7156 26.774 38.0258 28.9396 39.0172 32.2021C40.3602 36.2732 37.618 40.3584 34.3977 42.6365C31.3953 44.6686 27.4649 43.6631 24.4836 42.1443C21.1508 40.5623 18.9711 37.4053 19.1399 33.6646C19.2313 30.0365 20.1594 26.4084 22.4938 23.5678C23.7735 22.1475 25.0672 20.7904 26.7125 19.7357C28.6391 18.5404 30.8328 18.0131 33.0477 17.8373C35.2696 17.5842 37.618 18.1326 39.5656 19.0889C42.561 20.3334 45.6477 21.9928 47.4828 24.7842C50.3164 28.3209 50.8438 33.2076 50.0141 37.5318C49.4094 41.8139 46.9766 45.9764 43.5242 48.585C43.1797 48.8592 42.6805 48.8029 42.3992 48.4584C42.1461 48.142 42.1742 47.685 42.4485 47.4037C43.8336 45.9553 45.0571 44.3873 45.9289 42.6787C47.5391 39.2686 48.1508 35.099 47.6235 31.3584C47.0117 27.66 44.6563 24.2428 41.3446 22.4639C38.8063 21.149 36.1203 19.5459 33.1672 19.8553C30.2492 19.9467 27.4438 20.9451 25.4328 23.1107C24.0406 24.4326 22.8242 25.9936 22.2758 27.8709C21.4813 30.8873 21.0664 34.5576 22.6555 37.3279C23.9492 39.1982 26.0516 40.3654 28.2524 41.1881C31.775 42.5592 34.468 40.9982 36.2891 38.0029C37.2313 36.4771 37.6883 34.5928 36.8867 32.9756C36.1977 31.3865 34.0391 30.1701 32.4852 31.2107L32.6821 31.049C32.5203 31.2037 32.3797 31.5834 32.4008 31.77... <truncated>
</g>
<defs>
<filter id="filter0_d_4118_15464" x="0" y="0" width="66" height="66" filterUnits="userSpaceOnUse" color-interpolation-filters="sRGB">
<feFlood flood-opacity="0" result="BackgroundImageFix"/>
<feColorMatrix in="SourceAlpha" type="matrix" values="0 0 0 0 0 0 0 0 0 0 0 0 0 0 0 0 0 0 127 0" result="hardAlpha"/>
<feOffset dx="1" dy="2"/>
<feGaussianBlur stdDeviation="1"/>
<feComposite in2="hardAlpha" operator="out"/>
<feColorMatrix type="matrix" values="0 0 0 0 0 0 0 0 0 0 0 0 0 0 0 0 0 0 0.15 0"/>
<feBlend mode="normal" in2="BackgroundImageFix" result="effect1_dropShadow_4118_15464"/>
<feBlend mode="normal" in="SourceGraphic" in2="effect1_dropShadow_4118_15464" result="shape"/>
</filter>
</defs>
</svg>
