<svg width="63" height="63" viewBox="0 0 63 63" fill="none" xmlns="http://www.w3.org/2000/svg">
<g filter="url(#filter0_d_4104_41379)">
<path d="M60 29.5C60 45.7924 46.7924 59 30.5 59C14.2076 59 1 45.7924 1 29.5C1 13.2076 14.2076 0 30.5 0C46.7924 0 60 13.2076 60 29.5Z" fill="#4FA1A1"/>
<path d="M42.5305 16.1615C38.8461 13.9818 34.5149 13.117 30.3664 13.6584C28.482 13.9537 26.5203 15.0998 24.4602 16.0139C20.6985 17.7014 17.4219 20.9217 15.9664 24.7467C15.0664 27.524 14.7289 31.0678 15.193 34.042C15.8188 37.0162 17.7524 39.7865 19.8477 41.9381C22.7727 44.7787 27.2586 45.4748 31.1399 44.6381C39.1906 42.9998 44.2039 32.7131 38.1008 26.2303C35.4008 23.1998 29.9656 23.0311 26.9914 25.5482C25.6836 26.849 24.6149 29.4014 25.2266 31.5178C25.4656 32.3686 26.6539 34.1475 27.9688 34.26C28.7844 34.4076 29.8321 34.0701 30.3242 33.4162C30.3805 33.3459 30.3805 33.2896 30.3664 33.3529C30.3383 33.4092 30.3664 33.6271 30.4297 33.7256L30.3031 33.4443C30.3172 33.5006 30.3313 33.5006 30.268 33.4443C29.7266 32.9592 29.1641 32.8186 28.4961 31.8834C27.5539 30.4912 28.0672 28.5646 29.2485 27.4537C32.2156 25.274 36.5258 27.4396 37.5172 30.7021C38.8602 34.7732 36.118 38.8584 32.8977 41.1365C29.8953 43.1686 25.9649 42.1631 22.9836 40.6443C19.6508 39.0623 17.4711 35.9053 17.6399 32.1646C17.7313 28.5365 18.6594 24.9084 20.9938 22.0678C22.2735 20.6475 23.5672 19.2904 25.2125 18.2357C27.1391 17.0404 29.3328 16.5131 31.5477 16.3373C33.7696 16.0842 36.118 16.6326 38.0656 17.5889C41.061 18.8334 44.1477 20.4928 45.9828 23.2842C48.8164 26.8209 49.3438 31.7076 48.5141 36.0318C47.9094 40.3139 45.4766 44.4764 42.0242 47.085C41.6797 47.3592 41.1805 47.3029 40.8992 46.9584C40.6461 46.642 40.6742 46.185 40.9485 45.9037C42.3336 44.4553 43.5571 42.8873 44.4289 41.1787C46.0391 37.7686 46.6508 33.599 46.1235 29.8584C45.5117 26.16 43.1563 22.7428 39.8446 20.9639C37.3063 19.649 34.6203 18.0459 31.6672 18.3553C28.7492 18.4467 25.9438 19.4451 23.9328 21.6107C22.5406 22.9326 21.3242 24.4936 20.7758 26.3709C19.9813 29.3873 19.5664 33.0576 21.1555 35.8279C22.4492 37.6982 24.5516 38.8654 26.7524 39.6881C30.275 41.0592 32.968 39.4982 34.7891 36.5029C35.7313 34.9771 36.1883 33.0928 35.3867 31.4756C34.6977 29.8865 32.5391 28.6701 30.9852 29.7107L31.1821 29.549C31.0203 29.7037 30.8797 30.0834 30.9008 30.27... <truncated>
</g>
<defs>
<filter id="filter0_d_4104_41379" x="0" y="0" width="63" height="63" filterUnits="userSpaceOnUse" color-interpolation-filters="sRGB">
<feFlood flood-opacity="0" result="BackgroundImageFix"/>
<feColorMatrix in="SourceAlpha" type="matrix" values="0 0 0 0 0 0 0 0 0 0 0 0 0 0 0 0 0 0 127 0" result="hardAlpha"/>
<feOffset dx="1" dy="2"/>
<feGaussianBlur stdDeviation="1"/>
<feComposite in2="hardAlpha" operator="out"/>
<feColorMatrix type="matrix" values="0 0 0 0 0 0 0 0 0 0 0 0 0 0 0 0 0 0 0.15 0"/>
<feBlend mode="normal" in2="BackgroundImageFix" result="effect1_dropShadow_4104_41379"/>
<feBlend mode="normal" in="SourceGraphic" in2="effect1_dropShadow_4104_41379" result="shape"/>
</filter>
</defs>
</svg>
