<svg width="66" height="66" viewBox="0 0 66 66" fill="none" xmlns="http://www.w3.org/2000/svg">
<g filter="url(#filter0_d_4118_15454)">
<circle cx="32" cy="31" r="29.5" fill="#9A7AC1" stroke="white" stroke-width="3"/>
<path fill-rule="evenodd" clip-rule="evenodd" d="M36.0649 31.6174C36.0649 32.4414 35.8442 33.0888 35.4543 33.7583C35.0643 34.4278 34.6082 34.9795 33.9166 35.3768C33.2251 35.7741 32.5777 35.9139 31.7463 35.9139C30.915 35.9139 30.1425 35.9433 29.473 35.5607C28.8035 35.1782 27.9648 34.722 27.5675 34.0378C27.1702 33.3536 26.8539 32.4487 26.8539 31.6247C26.8539 30.8007 27.2512 29.9179 27.6337 29.2558C28.0163 28.5936 28.7814 28.086 29.4656 27.6887C30.1498 27.2914 30.915 26.8721 31.739 26.8721C32.563 26.8721 33.4973 27.0413 34.1668 27.4238C34.8363 27.8064 34.9761 28.8364 35.3733 29.528C35.7706 30.2195 36.0502 30.8007 36.0502 31.6247L36.0649 31.6174Z" fill="#F2F5FB"/>
<path d="M21.3353 13.7473C23.3438 17.0874 25.6686 20.3245 26.3822 24.2384C26.4043 24.6725 26.0585 25.0477 25.6171 25.0624C24.359 24.8564 23.9103 23.3188 23.4688 22.3697C22.3579 19.7433 20.6732 17.4184 19.4225 14.8508C19.1429 14.3064 19.3562 13.6443 19.9007 13.3647C20.4083 13.0998 21.0263 13.2764 21.3353 13.7473Z" fill="#F2F5FB"/>
<path d="M44.5914 14.6443L41.9723 19.8457C41.1556 21.5967 39.8167 23.0681 39.0074 24.8191C38.6101 25.6136 37.6463 25.9373 36.8518 25.5401C35.991 25.1207 35.6894 24.0024 36.2264 23.2079C37.2491 21.5231 38.7425 20.2356 39.802 18.5803L43.0317 13.7246C43.6644 12.7976 45.0917 13.629 44.5987 14.6369L44.5914 14.6443Z" fill="#F2F5FB"/>
<path d="M32.5769 11.2752L32.6578 17.0799C32.6725 19.0222 32.9815 20.9424 32.9815 22.8846C32.9962 23.613 32.415 24.2162 31.6867 24.2236C30.9436 24.2383 30.333 23.6277 30.3477 22.8846C30.4065 20.9497 30.1711 19.0148 30.2373 17.0799C30.2373 17.0725 30.3697 11.2678 30.3697 11.2605C30.4212 9.84057 32.5327 9.84793 32.5769 11.2678V11.2752Z" fill="#F2F5FB"/>
<path d="M19.6437 48.0089C20.0189 46.2874 21.5345 44.3304 22.3584 42.8001C23.3664 41.1154 24.1315 39.3129 25.0364 37.5693C25.8678 35.9728 28.2661 37.1793 27.4789 38.7979C25.7427 41.2551 24.2566 43.8743 22.6086 46.3904C22.0494 47.0599 20.8502 49.6495 19.7688 48.5533C19.6437 48.3915 19.6069 48.1928 19.6363 48.0089H19.6437Z" fill="#F2F5FB"/>
<path d="M42.237 49.0464L38.9411 44.0657C37.786 42.4398 37.146 40.5122 36.0056 38.879C35.6231 38.3125 35.7775 37.54 36.3514 37.1648C36.9252 36.7822 37.7125 36.9441 38.0803 37.5326C39.2059 39.188 39.8019 41.1302 40.9054 42.7929C40.9054 42.7929 44.091 47.8472 44.091 47.8546C44.8341 49.0758 43.0463 50.2382 42.237 49.0538V49.0464Z" fill="#F2F5FB"/>
<path d="M31.172 51.0917C30.738 48.1856 30.6791 45.0074 30.5467 42.0866C30.6276 40.8948 30.1421 37.8416 32.0328 38.0697C32.5037 38.158 32.8568 38.5258 32.9377 38.9746C33.6661 42.9989 33.3718 47.0674 32.8347 51.0917C32.7097 52.0407 31.2898 52.0334 31.1647 51.0917H31.172Z" fill="#F2F5FB"/>
</g>
<defs>
<filter id="filter0_d_4118_15454" x="0" y="0" width="66" height="66" filterUnits="userSpaceOnUse" color-interpolation-filters="sRGB">
<feFlood flood-opacity="0" result="BackgroundImageFix"/>
<feColorMatrix in="SourceAlpha" type="matrix" values="0 0 0 0 0 0 0 0 0 0 0 0 0 0 0 0 0 0 127 0" result="hardAlpha"/>
<feOffset dx="1" dy="2"/>
<feGaussianBlur stdDeviation="1"/>
<feComposite in2="hardAlpha" operator="out"/>
<feColorMatrix type="matrix" values="0 0 0 0 0 0 0 0 0 0 0 0 0 0 0 0 0 0 0.15 0"/>
<feBlend mode="normal" in2="BackgroundImageFix" result="effect1_dropShadow_4118_15454"/>
<feBlend mode="normal" in="SourceGraphic" in2="effect1_dropShadow_4118_15454" result="shape"/>
</filter>
</defs>
</svg>
