<svg width="63" height="63" viewBox="0 0 63 63" fill="none" xmlns="http://www.w3.org/2000/svg">
<g filter="url(#filter0_d_4104_41377)">
<path d="M60 29.5C60 45.7924 46.7924 59 30.5 59C14.2076 59 1 45.7924 1 29.5C1 13.2076 14.2076 0 30.5 0C46.7924 0 60 13.2076 60 29.5Z" fill="#9A7AC1"/>
<path fill-rule="evenodd" clip-rule="evenodd" d="M34.5649 30.1175C34.5649 30.9415 34.3442 31.5889 33.9543 32.2584C33.5643 32.9279 33.1082 33.4797 32.4166 33.8769C31.7251 34.2742 31.0777 34.414 30.2463 34.414C29.415 34.414 28.6425 34.4434 27.973 34.0609C27.3035 33.6783 26.4648 33.2222 26.0675 32.538C25.6702 31.8538 25.3539 30.9488 25.3539 30.1248C25.3539 29.3009 25.7512 28.418 26.1337 27.7559C26.5163 27.0937 27.2814 26.5861 27.9656 26.1888C28.6498 25.7915 29.415 25.3722 30.239 25.3722C31.063 25.3722 31.9973 25.5414 32.6668 25.924C33.3363 26.3065 33.4761 27.3365 33.8733 28.0281C34.2706 28.7197 34.5502 29.3009 34.5502 30.1248L34.5649 30.1175Z" fill="#EBE4F3"/>
<path d="M19.8353 12.2473C21.8438 15.5874 24.1686 18.8245 24.8822 22.7384C24.9043 23.1725 24.5585 23.5477 24.1171 23.5624C22.859 23.3564 22.4103 21.8188 21.9688 20.8697C20.8579 18.2433 19.1732 15.9184 17.9225 13.3508C17.6429 12.8064 17.8562 12.1443 18.4007 11.8647C18.9083 11.5998 19.5263 11.7764 19.8353 12.2473Z" fill="#EBE4F3"/>
<path d="M43.0914 13.1444L40.4723 18.3458C39.6557 20.0968 38.3167 21.5682 37.5074 23.3192C37.1101 24.1137 36.1463 24.4375 35.3518 24.0402C34.491 23.6208 34.1894 22.5026 34.7264 21.708C35.7491 20.0232 37.2425 18.7357 38.302 17.0804L41.5317 12.2248C42.1644 11.2978 43.5917 12.1291 43.0987 13.137L43.0914 13.1444Z" fill="#EBE4F3"/>
<path d="M31.0769 9.77519L31.1578 15.5799C31.1725 17.5222 31.4815 19.4424 31.4815 21.3846C31.4962 22.113 30.915 22.7162 30.1867 22.7236C29.4436 22.7383 28.833 22.1277 28.8477 21.3846C28.9065 19.4497 28.6711 17.5148 28.7373 15.5799C28.7373 15.5725 28.8697 9.76784 28.8697 9.76048C28.9212 8.34057 31.0327 8.34793 31.0769 9.76784V9.77519Z" fill="#EBE4F3"/>
<path d="M18.1436 46.5088C18.5189 44.7873 20.0344 42.8303 20.8584 41.3C21.8663 39.6153 22.6314 37.8128 23.5364 36.0692C24.3677 34.4727 26.7661 35.6793 25.9789 37.2978C24.2426 39.7551 22.7565 42.3742 21.1085 44.8903C20.5494 45.5598 19.3502 48.1495 18.2687 47.0533C18.1436 46.8914 18.1069 46.6928 18.1363 46.5088H18.1436Z" fill="#EBE4F3"/>
<path d="M40.737 47.5463L37.441 42.5656C36.286 40.9397 35.6459 39.0121 34.5056 37.3789C34.123 36.8124 34.2775 36.0399 34.8514 35.6647C35.4252 35.2821 36.2124 35.444 36.5803 36.0325C37.7059 37.6879 38.3018 39.6301 39.4054 41.2928C39.4054 41.2928 42.591 46.3471 42.591 46.3545C43.334 47.5757 41.5463 48.7382 40.737 47.5537V47.5463Z" fill="#EBE4F3"/>
<path d="M29.672 49.5916C29.2379 46.6856 29.1791 43.5073 29.0466 40.5866C29.1276 39.3947 28.642 36.3415 30.5328 36.5696C31.0036 36.6579 31.3568 37.0257 31.4377 37.4745C32.166 41.4988 31.8717 45.5673 31.3347 49.5916C31.2096 50.5406 29.7897 50.5333 29.6646 49.5916H29.672Z" fill="#EBE4F3"/>
</g>
<defs>
<filter id="filter0_d_4104_41377" x="0" y="0" width="63" height="63" filterUnits="userSpaceOnUse" color-interpolation-filters="sRGB">
<feFlood flood-opacity="0" result="BackgroundImageFix"/>
<feColorMatrix in="SourceAlpha" type="matrix" values="0 0 0 0 0 0 0 0 0 0 0 0 0 0 0 0 0 0 127 0" result="hardAlpha"/>
<feOffset dx="1" dy="2"/>
<feGaussianBlur stdDeviation="1"/>
<feComposite in2="hardAlpha" operator="out"/>
<feColorMatrix type="matrix" values="0 0 0 0 0 0 0 0 0 0 0 0 0 0 0 0 0 0 0.15 0"/>
<feBlend mode="normal" in2="BackgroundImageFix" result="effect1_dropShadow_4104_41377"/>
<feBlend mode="normal" in="SourceGraphic" in2="effect1_dropShadow_4104_41377" result="shape"/>
</filter>
</defs>
</svg>
