<svg width="63" height="63" viewBox="0 0 63 63" fill="none" xmlns="http://www.w3.org/2000/svg">
<g filter="url(#filter0_d_4104_41378)">
<path d="M60 29.5C60 45.7924 46.7924 59 30.5 59C14.2076 59 1 45.7924 1 29.5C1 13.2076 14.2076 0 30.5 0C46.7924 0 60 13.2076 60 29.5Z" fill="#D77A4F"/>
<path d="M20.0023 22.1101C25.6062 26.0476 26.2038 33.1 19.8546 36.6016C18.4132 37.3047 17.232 35.2656 18.5468 34.3586C21.0359 32.7906 22.6179 29.1976 20.8039 26.6383C20.2203 25.8086 19.3414 25.1125 18.357 24.55C16.5851 23.4531 18.3148 20.8726 20.0093 22.1101H20.0023Z" fill="#F7E4DC"/>
<path d="M25.9507 16.2391C28.8406 17.6594 31.9203 19.9234 33.3828 23.0594C34.107 25.0703 34.6695 27.1516 34.7117 29.3101C34.8031 34.8719 31.4421 40.8414 26.0914 42.6625C25.4304 42.8734 24.7203 42.5148 24.5093 41.8539C24.3476 41.3617 24.5093 40.8484 24.8679 40.525C25.7398 39.6742 26.5906 38.9219 27.3781 38.1133C30.4437 34.9984 32.546 30.3367 31.1679 26.0055C30.7671 24.9789 30.064 24.107 29.5507 23.1226C28.3835 21.2031 26.689 19.4875 24.8749 17.793C24.0804 17.0687 24.9874 15.7539 25.9437 16.232L25.9507 16.2391Z" fill="#F7E4DC"/>
<path d="M32.2578 10.5226C34.2757 10.8461 35.5906 12.3719 37.0601 13.6164C39.8937 16.2812 42.1156 19.6703 43.2757 23.4109C44.7312 28.1078 44.6046 33.3883 42.5726 37.9023C41.3843 40.6164 39.2538 42.8102 37.2499 44.9477C35.8437 46.3187 34.2968 47.5422 32.6867 48.6601C31.8359 49.2578 30.6617 49.0539 30.064 48.2031C29.396 47.2609 29.7757 45.8969 30.8304 45.4258C32.3913 44.7156 33.8398 43.7734 35.1335 42.6695C37.1726 41.0453 38.3117 38.725 39.4437 36.4398C40.5546 34.1617 41.3843 31.7219 41.532 29.1836C42.0523 22.9258 37.6507 17.793 32.9257 14.2492C32.2156 13.7148 31.5265 13.1453 31.0624 12.2242C30.6124 11.4156 31.3507 10.3609 32.2578 10.5086V10.5226Z" fill="#F7E4DC"/>
</g>
<defs>
<filter id="filter0_d_4104_41378" x="0" y="0" width="63" height="63" filterUnits="userSpaceOnUse" color-interpolation-filters="sRGB">
<feFlood flood-opacity="0" result="BackgroundImageFix"/>
<feColorMatrix in="SourceAlpha" type="matrix" values="0 0 0 0 0 0 0 0 0 0 0 0 0 0 0 0 0 0 127 0" result="hardAlpha"/>
<feOffset dx="1" dy="2"/>
<feGaussianBlur stdDeviation="1"/>
<feComposite in2="hardAlpha" operator="out"/>
<feColorMatrix type="matrix" values="0 0 0 0 0 0 0 0 0 0 0 0 0 0 0 0 0 0 0.15 0"/>
<feBlend mode="normal" in2="BackgroundImageFix" result="effect1_dropShadow_4104_41378"/>
<feBlend mode="normal" in="SourceGraphic" in2="effect1_dropShadow_4104_41378" result="shape"/>
</filter>
</defs>
</svg>
