<svg width="27" height="39" viewBox="0 0 27 39" fill="none" xmlns="http://www.w3.org/2000/svg">
<path d="M2.3901 11.6155C7.99401 15.553 8.59167 22.6053 2.24245 26.1069C0.801043 26.81 -0.380207 24.771 0.934637 23.8639C3.4237 22.296 5.00573 18.703 3.19167 16.1436C2.60807 15.3139 1.72917 14.6178 0.744793 14.0553C-1.02708 12.9585 0.702605 10.378 2.39714 11.6155H2.3901Z" fill="#AF6949"/>
<path d="M8.33866 5.74448C11.2285 7.16479 14.3082 9.42886 15.7707 12.5648C16.4949 14.5757 17.0574 16.657 17.0996 18.8156C17.191 24.3773 13.8301 30.3468 8.47929 32.1679C7.81835 32.3789 7.10819 32.0203 6.89726 31.3593C6.73554 30.8671 6.89726 30.3539 7.25585 30.0304C8.12772 29.1796 8.97851 28.4273 9.76601 27.6187C12.8316 24.5039 14.934 19.8421 13.5559 15.5109C13.1551 14.4843 12.4519 13.6124 11.9387 12.6281C10.7715 10.7085 9.07694 8.99292 7.26288 7.29839C6.46835 6.57417 7.37538 5.25932 8.33163 5.73745L8.33866 5.74448Z" fill="#AF6949"/>
<path d="M14.6457 0.0280182C16.6636 0.351456 17.9785 1.87724 19.448 3.12177C22.2816 5.78661 24.5035 9.17568 25.6636 12.9163C27.1191 17.6132 26.9925 22.8936 24.9605 27.4077C23.7722 30.1218 21.6418 32.3155 19.6378 34.453C18.2316 35.8241 16.6847 37.0476 15.0746 38.1655C14.2238 38.7632 13.0496 38.5593 12.4519 37.7085C11.7839 36.7663 12.1636 35.4022 13.2183 34.9311C14.7793 34.221 16.2277 33.2788 17.5214 32.1749C19.5605 30.5507 20.6996 28.2304 21.8316 25.9452C22.9425 23.6671 23.7722 21.2272 23.9199 18.689C24.4402 12.4311 20.0386 7.29833 15.3136 3.75458C14.6035 3.22021 13.9144 2.65067 13.4503 1.72958C13.0003 0.920987 13.7386 -0.133701 14.6457 0.0139554V0.0280182Z" fill="#AF6949"/>
</svg>
