<svg width="66" height="66" viewBox="0 0 66 66" fill="none" xmlns="http://www.w3.org/2000/svg">
<g filter="url(#filter0_d_4118_15448)">
<circle cx="32" cy="31" r="29.5" fill="#D77A4F" stroke="white" stroke-width="3"/>
<path d="M21.5024 23.6102C27.1063 27.5477 27.704 34.6 21.3548 38.1016C19.9133 38.8047 18.7321 36.7656 20.0469 35.8586C22.536 34.2906 24.118 30.6977 22.304 28.1383C21.7204 27.3086 20.8415 26.6125 19.8571 26.05C18.0852 24.9531 19.8149 22.3727 21.5094 23.6102H21.5024Z" fill="#F2F5FB"/>
<path d="M27.4508 17.7391C30.3406 19.1594 33.4203 21.4235 34.8828 24.5594C35.607 26.5704 36.1695 28.6516 36.2117 30.8102C36.3031 36.3719 32.9422 42.3415 27.5914 44.1625C26.9305 44.3735 26.2203 44.0149 26.0094 43.354C25.8477 42.8618 26.0094 42.3485 26.368 42.025C27.2399 41.1743 28.0906 40.4219 28.8781 39.6133C31.9438 36.4985 34.0461 31.8368 32.668 27.5055C32.2672 26.479 31.5641 25.6071 31.0508 24.6227C29.8836 22.7032 28.1891 20.9875 26.375 19.293C25.5805 18.5688 26.4875 17.254 27.4438 17.7321L27.4508 17.7391Z" fill="#F2F5FB"/>
<path d="M33.7579 12.0226C35.7759 12.3461 37.0907 13.8719 38.5603 15.1164C41.3939 17.7812 43.6157 21.1703 44.7759 24.9109C46.2313 29.6078 46.1048 34.8883 44.0728 39.4023C42.8845 42.1164 40.754 44.3102 38.7501 46.4477C37.3438 47.8187 35.797 49.0422 34.1868 50.1601C33.336 50.7578 32.1618 50.5539 31.5642 49.7031C30.8962 48.7609 31.2759 47.3969 32.3306 46.9258C33.8915 46.2156 35.3399 45.2734 36.6337 44.1695C38.6728 42.5453 39.8118 40.225 40.9438 37.9398C42.0548 35.6617 42.8845 33.2219 43.0321 30.6836C43.5524 24.4258 39.1509 19.293 34.4259 15.7492C33.7157 15.2148 33.0267 14.6453 32.5626 13.7242C32.1126 12.9156 32.8509 11.8609 33.7579 12.0086V12.0226Z" fill="#F2F5FB"/>
</g>
<defs>
<filter id="filter0_d_4118_15448" x="0" y="0" width="66" height="66" filterUnits="userSpaceOnUse" color-interpolation-filters="sRGB">
<feFlood flood-opacity="0" result="BackgroundImageFix"/>
<feColorMatrix in="SourceAlpha" type="matrix" values="0 0 0 0 0 0 0 0 0 0 0 0 0 0 0 0 0 0 127 0" result="hardAlpha"/>
<feOffset dx="1" dy="2"/>
<feGaussianBlur stdDeviation="1"/>
<feComposite in2="hardAlpha" operator="out"/>
<feColorMatrix type="matrix" values="0 0 0 0 0 0 0 0 0 0 0 0 0 0 0 0 0 0 0.15 0"/>
<feBlend mode="normal" in2="BackgroundImageFix" result="effect1_dropShadow_4118_15448"/>
<feBlend mode="normal" in="SourceGraphic" in2="effect1_dropShadow_4118_15448" result="shape"/>
</filter>
</defs>
</svg>
